# xmcd
#
# Track frame offsets:
#	150
#	11137
#	21467
#	33625
#	46657
#	56550
#	69550
#	84085
#	99095
#	111625
#	124085
#	136337
#	152855
#	164145
#	175575
#	185852
#	200157
#	210202
#
# Disc length: 2968 seconds
#
# Revision: 0
# Processed by: cddbd v1.5.1PL2 Copyright (c) Steve Scherf et al.
# Submitted via: EasyCDDAExtractor 8.2.4.1
#
DISCID=fe0b9612
DTITLE=Eddy Arnold - The Magic of Eddy Arnold
DYEAR=1982
DGENRE=Country
TTITLE0=Bouquet of Roses
TTITLE1=Anytime
TTITLE2=Make The World Go Away
TTITLE3=I Really Don't Want to Know
TTITLE4=What's He Doing In My World
TTITLE5=Just A Little Lovin'
TTITLE6=Your Cheatin' Heart
TTITLE7=For The Good Times
TTITLE8=You Don't Know Me
TTITLE9=Cattle Call
TTITLE10=Tumbling Tumblieweeds
TTITLE11=Cool Water
TTITLE12=Sixteen Tons
TTITLE13=Turn The World Around
TTITLE14=Tennessee Waltz
TTITLE15=Streets of Larado
TTITLE16=The Last Word In Lonesome Is Me
TTITLE17=May The Good Lord Bless and Keep You
EXTD=
EXTT0=
EXTT1=
EXTT2=
EXTT3=
EXTT4=
EXTT5=
EXTT6=
EXTT7=
EXTT8=
EXTT9=
EXTT10=
EXTT11=
EXTT12=
EXTT13=
EXTT14=
EXTT15=
EXTT16=
EXTT17=
PLAYORDER=
